/* XPM */
static char * cyan_32x23_xpm[] = {
"32 23 26 1",
" 	c None",
".	c #004040",
"+	c #004060",
"@	c #004080",
"#	c #0040A0",
"$	c #0040C0",
"%	c #006040",
"&	c #006060",
"*	c #006080",
"=	c #0060A0",
"-	c #0060C0",
";	c #008040",
">	c #008060",
",	c #008080",
"'	c #0080A0",
")	c #0080C0",
"!	c #00A040",
"~	c #00A060",
"{	c #00A080",
"]	c #00A0A0",
"^	c #00A0C0",
"/	c #00C040",
"(	c #00C060",
"_	c #00C080",
":	c #00C0A0",
"<	c #00C0C0",
"..........+@@@@@@@@@@#$$$$$$$$$$",
"..........+@@@@@@@@@@#$$$$$$$$$$",
"..........+@@@@@@@@@@#$$$$$$$$$$",
"..........+@@@@@@@@@@#$$$$$$$$$$",
"..........+@@@@@@@@@@#$$$$$$$$$$",
"..........+@@@@@@@@@@#$$$$$$$$$$",
"..........+@@@@@@@@@@#$$$$$$$$$$",
"%%%%%%%%%%&**********=----------",
";;;;;;;;;;>,,,,,,,,,,'))))))))))",
";;;;;;;;;;>,,,,,,,,,,'))))))))))",
";;;;;;;;;;>,,,,,,,,,,'))))))))))",
";;;;;;;;;;>,,,,,,,,,,'))))))))))",
";;;;;;;;;;>,,,,,,,,,,'))))))))))",
";;;;;;;;;;>,,,,,,,,,,'))))))))))",
";;;;;;;;;;>,,,,,,,,,,'))))))))))",
"!!!!!!!!!!~{{{{{{{{{{]^^^^^^^^^^",
"//////////(__________:<<<<<<<<<<",
"//////////(__________:<<<<<<<<<<",
"//////////(__________:<<<<<<<<<<",
"//////////(__________:<<<<<<<<<<",
"//////////(__________:<<<<<<<<<<",
"//////////(__________:<<<<<<<<<<",
"//////////(__________:<<<<<<<<<<"};
