/* XPM */
static char * magenta_122x92_xpm[] = {
"122 92 26 1",
" 	c None",
".	c #400040",
"+	c #600040",
"@	c #800040",
"#	c #A00040",
"$	c #C00040",
"%	c #400060",
"&	c #600060",
"*	c #800060",
"=	c #A00060",
"-	c #C00060",
";	c #400080",
">	c #600080",
",	c #800080",
"'	c #A00080",
")	c #C00080",
"!	c #4000A0",
"~	c #6000A0",
"{	c #8000A0",
"]	c #A000A0",
"^	c #C000A0",
"/	c #4000C0",
"(	c #6000C0",
"_	c #8000C0",
":	c #A000C0",
"<	c #C000C0",
"........................................+@@@@@@@@@@@@@@@@@@@@@@@@@@@@@@@@@@@@@@@@#$$$$$$$$$$$$$$$$$$$$$$$$$$$$$$$$$$$$$$$$",
"........................................+@@@@@@@@@@@@@@@@@@@@@@@@@@@@@@@@@@@@@@@@#$$$$$$$$$$$$$$$$$$$$$$$$$$$$$$$$$$$$$$$$",
"........................................+@@@@@@@@@@@@@@@@@@@@@@@@@@@@@@@@@@@@@@@@#$$$$$$$$$$$$$$$$$$$$$$$$$$$$$$$$$$$$$$$$",
"........................................+@@@@@@@@@@@@@@@@@@@@@@@@@@@@@@@@@@@@@@@@#$$$$$$$$$$$$$$$$$$$$$$$$$$$$$$$$$$$$$$$$",
"........................................+@@@@@@@@@@@@@@@@@@@@@@@@@@@@@@@@@@@@@@@@#$$$$$$$$$$$$$$$$$$$$$$$$$$$$$$$$$$$$$$$$",
"........................................+@@@@@@@@@@@@@@@@@@@@@@@@@@@@@@@@@@@@@@@@#$$$$$$$$$$$$$$$$$$$$$$$$$$$$$$$$$$$$$$$$",
"........................................+@@@@@@@@@@@@@@@@@@@@@@@@@@@@@@@@@@@@@@@@#$$$$$$$$$$$$$$$$$$$$$$$$$$$$$$$$$$$$$$$$",
"........................................+@@@@@@@@@@@@@@@@@@@@@@@@@@@@@@@@@@@@@@@@#$$$$$$$$$$$$$$$$$$$$$$$$$$$$$$$$$$$$$$$$",
"........................................+@@@@@@@@@@@@@@@@@@@@@@@@@@@@@@@@@@@@@@@@#$$$$$$$$$$$$$$$$$$$$$$$$$$$$$$$$$$$$$$$$",
"........................................+@@@@@@@@@@@@@@@@@@@@@@@@@@@@@@@@@@@@@@@@#$$$$$$$$$$$$$$$$$$$$$$$$$$$$$$$$$$$$$$$$",
"........................................+@@@@@@@@@@@@@@@@@@@@@@@@@@@@@@@@@@@@@@@@#$$$$$$$$$$$$$$$$$$$$$$$$$$$$$$$$$$$$$$$$",
"........................................+@@@@@@@@@@@@@@@@@@@@@@@@@@@@@@@@@@@@@@@@#$$$$$$$$$$$$$$$$$$$$$$$$$$$$$$$$$$$$$$$$",
"........................................+@@@@@@@@@@@@@@@@@@@@@@@@@@@@@@@@@@@@@@@@#$$$$$$$$$$$$$$$$$$$$$$$$$$$$$$$$$$$$$$$$",
"........................................+@@@@@@@@@@@@@@@@@@@@@@@@@@@@@@@@@@@@@@@@#$$$$$$$$$$$$$$$$$$$$$$$$$$$$$$$$$$$$$$$$",
"........................................+@@@@@@@@@@@@@@@@@@@@@@@@@@@@@@@@@@@@@@@@#$$$$$$$$$$$$$$$$$$$$$$$$$$$$$$$$$$$$$$$$",
"........................................+@@@@@@@@@@@@@@@@@@@@@@@@@@@@@@@@@@@@@@@@#$$$$$$$$$$$$$$$$$$$$$$$$$$$$$$$$$$$$$$$$",
"........................................+@@@@@@@@@@@@@@@@@@@@@@@@@@@@@@@@@@@@@@@@#$$$$$$$$$$$$$$$$$$$$$$$$$$$$$$$$$$$$$$$$",
"........................................+@@@@@@@@@@@@@@@@@@@@@@@@@@@@@@@@@@@@@@@@#$$$$$$$$$$$$$$$$$$$$$$$$$$$$$$$$$$$$$$$$",
"........................................+@@@@@@@@@@@@@@@@@@@@@@@@@@@@@@@@@@@@@@@@#$$$$$$$$$$$$$$$$$$$$$$$$$$$$$$$$$$$$$$$$",
"........................................+@@@@@@@@@@@@@@@@@@@@@@@@@@@@@@@@@@@@@@@@#$$$$$$$$$$$$$$$$$$$$$$$$$$$$$$$$$$$$$$$$",
"........................................+@@@@@@@@@@@@@@@@@@@@@@@@@@@@@@@@@@@@@@@@#$$$$$$$$$$$$$$$$$$$$$$$$$$$$$$$$$$$$$$$$",
"........................................+@@@@@@@@@@@@@@@@@@@@@@@@@@@@@@@@@@@@@@@@#$$$$$$$$$$$$$$$$$$$$$$$$$$$$$$$$$$$$$$$$",
"........................................+@@@@@@@@@@@@@@@@@@@@@@@@@@@@@@@@@@@@@@@@#$$$$$$$$$$$$$$$$$$$$$$$$$$$$$$$$$$$$$$$$",
"........................................+@@@@@@@@@@@@@@@@@@@@@@@@@@@@@@@@@@@@@@@@#$$$$$$$$$$$$$$$$$$$$$$$$$$$$$$$$$$$$$$$$",
"........................................+@@@@@@@@@@@@@@@@@@@@@@@@@@@@@@@@@@@@@@@@#$$$$$$$$$$$$$$$$$$$$$$$$$$$$$$$$$$$$$$$$",
"........................................+@@@@@@@@@@@@@@@@@@@@@@@@@@@@@@@@@@@@@@@@#$$$$$$$$$$$$$$$$$$$$$$$$$$$$$$$$$$$$$$$$",
"........................................+@@@@@@@@@@@@@@@@@@@@@@@@@@@@@@@@@@@@@@@@#$$$$$$$$$$$$$$$$$$$$$$$$$$$$$$$$$$$$$$$$",
"........................................+@@@@@@@@@@@@@@@@@@@@@@@@@@@@@@@@@@@@@@@@#$$$$$$$$$$$$$$$$$$$$$$$$$$$$$$$$$$$$$$$$",
"........................................+@@@@@@@@@@@@@@@@@@@@@@@@@@@@@@@@@@@@@@@@#$$$$$$$$$$$$$$$$$$$$$$$$$$$$$$$$$$$$$$$$",
"........................................+@@@@@@@@@@@@@@@@@@@@@@@@@@@@@@@@@@@@@@@@#$$$$$$$$$$$$$$$$$$$$$$$$$$$$$$$$$$$$$$$$",
"%%%%%%%%%%%%%%%%%%%%%%%%%%%%%%%%%%%%%%%%&****************************************=----------------------------------------",
";;;;;;;;;;;;;;;;;;;;;;;;;;;;;;;;;;;;;;;;>,,,,,,,,,,,,,,,,,,,,,,,,,,,,,,,,,,,,,,,,'))))))))))))))))))))))))))))))))))))))))",
";;;;;;;;;;;;;;;;;;;;;;;;;;;;;;;;;;;;;;;;>,,,,,,,,,,,,,,,,,,,,,,,,,,,,,,,,,,,,,,,,'))))))))))))))))))))))))))))))))))))))))",
";;;;;;;;;;;;;;;;;;;;;;;;;;;;;;;;;;;;;;;;>,,,,,,,,,,,,,,,,,,,,,,,,,,,,,,,,,,,,,,,,'))))))))))))))))))))))))))))))))))))))))",
";;;;;;;;;;;;;;;;;;;;;;;;;;;;;;;;;;;;;;;;>,,,,,,,,,,,,,,,,,,,,,,,,,,,,,,,,,,,,,,,,'))))))))))))))))))))))))))))))))))))))))",
";;;;;;;;;;;;;;;;;;;;;;;;;;;;;;;;;;;;;;;;>,,,,,,,,,,,,,,,,,,,,,,,,,,,,,,,,,,,,,,,,'))))))))))))))))))))))))))))))))))))))))",
";;;;;;;;;;;;;;;;;;;;;;;;;;;;;;;;;;;;;;;;>,,,,,,,,,,,,,,,,,,,,,,,,,,,,,,,,,,,,,,,,'))))))))))))))))))))))))))))))))))))))))",
";;;;;;;;;;;;;;;;;;;;;;;;;;;;;;;;;;;;;;;;>,,,,,,,,,,,,,,,,,,,,,,,,,,,,,,,,,,,,,,,,'))))))))))))))))))))))))))))))))))))))))",
";;;;;;;;;;;;;;;;;;;;;;;;;;;;;;;;;;;;;;;;>,,,,,,,,,,,,,,,,,,,,,,,,,,,,,,,,,,,,,,,,'))))))))))))))))))))))))))))))))))))))))",
";;;;;;;;;;;;;;;;;;;;;;;;;;;;;;;;;;;;;;;;>,,,,,,,,,,,,,,,,,,,,,,,,,,,,,,,,,,,,,,,,'))))))))))))))))))))))))))))))))))))))))",
";;;;;;;;;;;;;;;;;;;;;;;;;;;;;;;;;;;;;;;;>,,,,,,,,,,,,,,,,,,,,,,,,,,,,,,,,,,,,,,,,'))))))))))))))))))))))))))))))))))))))))",
";;;;;;;;;;;;;;;;;;;;;;;;;;;;;;;;;;;;;;;;>,,,,,,,,,,,,,,,,,,,,,,,,,,,,,,,,,,,,,,,,'))))))))))))))))))))))))))))))))))))))))",
";;;;;;;;;;;;;;;;;;;;;;;;;;;;;;;;;;;;;;;;>,,,,,,,,,,,,,,,,,,,,,,,,,,,,,,,,,,,,,,,,'))))))))))))))))))))))))))))))))))))))))",
";;;;;;;;;;;;;;;;;;;;;;;;;;;;;;;;;;;;;;;;>,,,,,,,,,,,,,,,,,,,,,,,,,,,,,,,,,,,,,,,,'))))))))))))))))))))))))))))))))))))))))",
";;;;;;;;;;;;;;;;;;;;;;;;;;;;;;;;;;;;;;;;>,,,,,,,,,,,,,,,,,,,,,,,,,,,,,,,,,,,,,,,,'))))))))))))))))))))))))))))))))))))))))",
";;;;;;;;;;;;;;;;;;;;;;;;;;;;;;;;;;;;;;;;>,,,,,,,,,,,,,,,,,,,,,,,,,,,,,,,,,,,,,,,,'))))))))))))))))))))))))))))))))))))))))",
";;;;;;;;;;;;;;;;;;;;;;;;;;;;;;;;;;;;;;;;>,,,,,,,,,,,,,,,,,,,,,,,,,,,,,,,,,,,,,,,,'))))))))))))))))))))))))))))))))))))))))",
";;;;;;;;;;;;;;;;;;;;;;;;;;;;;;;;;;;;;;;;>,,,,,,,,,,,,,,,,,,,,,,,,,,,,,,,,,,,,,,,,'))))))))))))))))))))))))))))))))))))))))",
";;;;;;;;;;;;;;;;;;;;;;;;;;;;;;;;;;;;;;;;>,,,,,,,,,,,,,,,,,,,,,,,,,,,,,,,,,,,,,,,,'))))))))))))))))))))))))))))))))))))))))",
";;;;;;;;;;;;;;;;;;;;;;;;;;;;;;;;;;;;;;;;>,,,,,,,,,,,,,,,,,,,,,,,,,,,,,,,,,,,,,,,,'))))))))))))))))))))))))))))))))))))))))",
";;;;;;;;;;;;;;;;;;;;;;;;;;;;;;;;;;;;;;;;>,,,,,,,,,,,,,,,,,,,,,,,,,,,,,,,,,,,,,,,,'))))))))))))))))))))))))))))))))))))))))",
";;;;;;;;;;;;;;;;;;;;;;;;;;;;;;;;;;;;;;;;>,,,,,,,,,,,,,,,,,,,,,,,,,,,,,,,,,,,,,,,,'))))))))))))))))))))))))))))))))))))))))",
";;;;;;;;;;;;;;;;;;;;;;;;;;;;;;;;;;;;;;;;>,,,,,,,,,,,,,,,,,,,,,,,,,,,,,,,,,,,,,,,,'))))))))))))))))))))))))))))))))))))))))",
";;;;;;;;;;;;;;;;;;;;;;;;;;;;;;;;;;;;;;;;>,,,,,,,,,,,,,,,,,,,,,,,,,,,,,,,,,,,,,,,,'))))))))))))))))))))))))))))))))))))))))",
";;;;;;;;;;;;;;;;;;;;;;;;;;;;;;;;;;;;;;;;>,,,,,,,,,,,,,,,,,,,,,,,,,,,,,,,,,,,,,,,,'))))))))))))))))))))))))))))))))))))))))",
";;;;;;;;;;;;;;;;;;;;;;;;;;;;;;;;;;;;;;;;>,,,,,,,,,,,,,,,,,,,,,,,,,,,,,,,,,,,,,,,,'))))))))))))))))))))))))))))))))))))))))",
";;;;;;;;;;;;;;;;;;;;;;;;;;;;;;;;;;;;;;;;>,,,,,,,,,,,,,,,,,,,,,,,,,,,,,,,,,,,,,,,,'))))))))))))))))))))))))))))))))))))))))",
";;;;;;;;;;;;;;;;;;;;;;;;;;;;;;;;;;;;;;;;>,,,,,,,,,,,,,,,,,,,,,,,,,,,,,,,,,,,,,,,,'))))))))))))))))))))))))))))))))))))))))",
";;;;;;;;;;;;;;;;;;;;;;;;;;;;;;;;;;;;;;;;>,,,,,,,,,,,,,,,,,,,,,,,,,,,,,,,,,,,,,,,,'))))))))))))))))))))))))))))))))))))))))",
";;;;;;;;;;;;;;;;;;;;;;;;;;;;;;;;;;;;;;;;>,,,,,,,,,,,,,,,,,,,,,,,,,,,,,,,,,,,,,,,,'))))))))))))))))))))))))))))))))))))))))",
";;;;;;;;;;;;;;;;;;;;;;;;;;;;;;;;;;;;;;;;>,,,,,,,,,,,,,,,,,,,,,,,,,,,,,,,,,,,,,,,,'))))))))))))))))))))))))))))))))))))))))",
"!!!!!!!!!!!!!!!!!!!!!!!!!!!!!!!!!!!!!!!!~{{{{{{{{{{{{{{{{{{{{{{{{{{{{{{{{{{{{{{{{]^^^^^^^^^^^^^^^^^^^^^^^^^^^^^^^^^^^^^^^^",
"////////////////////////////////////////(________________________________________:<<<<<<<<<<<<<<<<<<<<<<<<<<<<<<<<<<<<<<<<",
"////////////////////////////////////////(________________________________________:<<<<<<<<<<<<<<<<<<<<<<<<<<<<<<<<<<<<<<<<",
"////////////////////////////////////////(________________________________________:<<<<<<<<<<<<<<<<<<<<<<<<<<<<<<<<<<<<<<<<",
"////////////////////////////////////////(________________________________________:<<<<<<<<<<<<<<<<<<<<<<<<<<<<<<<<<<<<<<<<",
"////////////////////////////////////////(________________________________________:<<<<<<<<<<<<<<<<<<<<<<<<<<<<<<<<<<<<<<<<",
"////////////////////////////////////////(________________________________________:<<<<<<<<<<<<<<<<<<<<<<<<<<<<<<<<<<<<<<<<",
"////////////////////////////////////////(________________________________________:<<<<<<<<<<<<<<<<<<<<<<<<<<<<<<<<<<<<<<<<",
"////////////////////////////////////////(________________________________________:<<<<<<<<<<<<<<<<<<<<<<<<<<<<<<<<<<<<<<<<",
"////////////////////////////////////////(________________________________________:<<<<<<<<<<<<<<<<<<<<<<<<<<<<<<<<<<<<<<<<",
"////////////////////////////////////////(________________________________________:<<<<<<<<<<<<<<<<<<<<<<<<<<<<<<<<<<<<<<<<",
"////////////////////////////////////////(________________________________________:<<<<<<<<<<<<<<<<<<<<<<<<<<<<<<<<<<<<<<<<",
"////////////////////////////////////////(________________________________________:<<<<<<<<<<<<<<<<<<<<<<<<<<<<<<<<<<<<<<<<",
"////////////////////////////////////////(________________________________________:<<<<<<<<<<<<<<<<<<<<<<<<<<<<<<<<<<<<<<<<",
"////////////////////////////////////////(________________________________________:<<<<<<<<<<<<<<<<<<<<<<<<<<<<<<<<<<<<<<<<",
"////////////////////////////////////////(________________________________________:<<<<<<<<<<<<<<<<<<<<<<<<<<<<<<<<<<<<<<<<",
"////////////////////////////////////////(________________________________________:<<<<<<<<<<<<<<<<<<<<<<<<<<<<<<<<<<<<<<<<",
"////////////////////////////////////////(________________________________________:<<<<<<<<<<<<<<<<<<<<<<<<<<<<<<<<<<<<<<<<",
"////////////////////////////////////////(________________________________________:<<<<<<<<<<<<<<<<<<<<<<<<<<<<<<<<<<<<<<<<",
"////////////////////////////////////////(________________________________________:<<<<<<<<<<<<<<<<<<<<<<<<<<<<<<<<<<<<<<<<",
"////////////////////////////////////////(________________________________________:<<<<<<<<<<<<<<<<<<<<<<<<<<<<<<<<<<<<<<<<",
"////////////////////////////////////////(________________________________________:<<<<<<<<<<<<<<<<<<<<<<<<<<<<<<<<<<<<<<<<",
"////////////////////////////////////////(________________________________________:<<<<<<<<<<<<<<<<<<<<<<<<<<<<<<<<<<<<<<<<",
"////////////////////////////////////////(________________________________________:<<<<<<<<<<<<<<<<<<<<<<<<<<<<<<<<<<<<<<<<",
"////////////////////////////////////////(________________________________________:<<<<<<<<<<<<<<<<<<<<<<<<<<<<<<<<<<<<<<<<",
"////////////////////////////////////////(________________________________________:<<<<<<<<<<<<<<<<<<<<<<<<<<<<<<<<<<<<<<<<",
"////////////////////////////////////////(________________________________________:<<<<<<<<<<<<<<<<<<<<<<<<<<<<<<<<<<<<<<<<",
"////////////////////////////////////////(________________________________________:<<<<<<<<<<<<<<<<<<<<<<<<<<<<<<<<<<<<<<<<",
"////////////////////////////////////////(________________________________________:<<<<<<<<<<<<<<<<<<<<<<<<<<<<<<<<<<<<<<<<",
"////////////////////////////////////////(________________________________________:<<<<<<<<<<<<<<<<<<<<<<<<<<<<<<<<<<<<<<<<",
"////////////////////////////////////////(________________________________________:<<<<<<<<<<<<<<<<<<<<<<<<<<<<<<<<<<<<<<<<"};
