/* XPM */
static char * cyan_62x47_xpm[] = {
"62 47 26 1",
" 	c None",
".	c #404000",
"+	c #406000",
"@	c #408000",
"#	c #40A000",
"$	c #40C000",
"%	c #604000",
"&	c #606000",
"*	c #608000",
"=	c #60A000",
"-	c #60C000",
";	c #804000",
">	c #806000",
",	c #808000",
"'	c #80A000",
")	c #80C000",
"!	c #A04000",
"~	c #A06000",
"{	c #A08000",
"]	c #A0A000",
"^	c #A0C000",
"/	c #C04000",
"(	c #C06000",
"_	c #C08000",
":	c #C0A000",
"<	c #C0C000",
"....................+@@@@@@@@@@@@@@@@@@@@#$$$$$$$$$$$$$$$$$$$$",
"....................+@@@@@@@@@@@@@@@@@@@@#$$$$$$$$$$$$$$$$$$$$",
"....................+@@@@@@@@@@@@@@@@@@@@#$$$$$$$$$$$$$$$$$$$$",
"....................+@@@@@@@@@@@@@@@@@@@@#$$$$$$$$$$$$$$$$$$$$",
"....................+@@@@@@@@@@@@@@@@@@@@#$$$$$$$$$$$$$$$$$$$$",
"....................+@@@@@@@@@@@@@@@@@@@@#$$$$$$$$$$$$$$$$$$$$",
"....................+@@@@@@@@@@@@@@@@@@@@#$$$$$$$$$$$$$$$$$$$$",
"....................+@@@@@@@@@@@@@@@@@@@@#$$$$$$$$$$$$$$$$$$$$",
"....................+@@@@@@@@@@@@@@@@@@@@#$$$$$$$$$$$$$$$$$$$$",
"....................+@@@@@@@@@@@@@@@@@@@@#$$$$$$$$$$$$$$$$$$$$",
"....................+@@@@@@@@@@@@@@@@@@@@#$$$$$$$$$$$$$$$$$$$$",
"....................+@@@@@@@@@@@@@@@@@@@@#$$$$$$$$$$$$$$$$$$$$",
"....................+@@@@@@@@@@@@@@@@@@@@#$$$$$$$$$$$$$$$$$$$$",
"....................+@@@@@@@@@@@@@@@@@@@@#$$$$$$$$$$$$$$$$$$$$",
"....................+@@@@@@@@@@@@@@@@@@@@#$$$$$$$$$$$$$$$$$$$$",
"%%%%%%%%%%%%%%%%%%%%&********************=--------------------",
";;;;;;;;;;;;;;;;;;;;>,,,,,,,,,,,,,,,,,,,,'))))))))))))))))))))",
";;;;;;;;;;;;;;;;;;;;>,,,,,,,,,,,,,,,,,,,,'))))))))))))))))))))",
";;;;;;;;;;;;;;;;;;;;>,,,,,,,,,,,,,,,,,,,,'))))))))))))))))))))",
";;;;;;;;;;;;;;;;;;;;>,,,,,,,,,,,,,,,,,,,,'))))))))))))))))))))",
";;;;;;;;;;;;;;;;;;;;>,,,,,,,,,,,,,,,,,,,,'))))))))))))))))))))",
";;;;;;;;;;;;;;;;;;;;>,,,,,,,,,,,,,,,,,,,,'))))))))))))))))))))",
";;;;;;;;;;;;;;;;;;;;>,,,,,,,,,,,,,,,,,,,,'))))))))))))))))))))",
";;;;;;;;;;;;;;;;;;;;>,,,,,,,,,,,,,,,,,,,,'))))))))))))))))))))",
";;;;;;;;;;;;;;;;;;;;>,,,,,,,,,,,,,,,,,,,,'))))))))))))))))))))",
";;;;;;;;;;;;;;;;;;;;>,,,,,,,,,,,,,,,,,,,,'))))))))))))))))))))",
";;;;;;;;;;;;;;;;;;;;>,,,,,,,,,,,,,,,,,,,,'))))))))))))))))))))",
";;;;;;;;;;;;;;;;;;;;>,,,,,,,,,,,,,,,,,,,,'))))))))))))))))))))",
";;;;;;;;;;;;;;;;;;;;>,,,,,,,,,,,,,,,,,,,,'))))))))))))))))))))",
";;;;;;;;;;;;;;;;;;;;>,,,,,,,,,,,,,,,,,,,,'))))))))))))))))))))",
";;;;;;;;;;;;;;;;;;;;>,,,,,,,,,,,,,,,,,,,,'))))))))))))))))))))",
"!!!!!!!!!!!!!!!!!!!!~{{{{{{{{{{{{{{{{{{{{]^^^^^^^^^^^^^^^^^^^^",
"////////////////////(____________________:<<<<<<<<<<<<<<<<<<<<",
"////////////////////(____________________:<<<<<<<<<<<<<<<<<<<<",
"////////////////////(____________________:<<<<<<<<<<<<<<<<<<<<",
"////////////////////(____________________:<<<<<<<<<<<<<<<<<<<<",
"////////////////////(____________________:<<<<<<<<<<<<<<<<<<<<",
"////////////////////(____________________:<<<<<<<<<<<<<<<<<<<<",
"////////////////////(____________________:<<<<<<<<<<<<<<<<<<<<",
"////////////////////(____________________:<<<<<<<<<<<<<<<<<<<<",
"////////////////////(____________________:<<<<<<<<<<<<<<<<<<<<",
"////////////////////(____________________:<<<<<<<<<<<<<<<<<<<<",
"////////////////////(____________________:<<<<<<<<<<<<<<<<<<<<",
"////////////////////(____________________:<<<<<<<<<<<<<<<<<<<<",
"////////////////////(____________________:<<<<<<<<<<<<<<<<<<<<",
"////////////////////(____________________:<<<<<<<<<<<<<<<<<<<<",
"////////////////////(____________________:<<<<<<<<<<<<<<<<<<<<"};
