/* XPM */
static char *player_stop.png[] = {
/* columns rows colors chars-per-pixel */
"16 16 2 1",
"  c black",
". c None",
/* pixels */
"................",
"................",
"................",
"................",
"....        ....",
"....        ....",
"....        ....",
"....        ....",
"....        ....",
"....        ....",
"....        ....",
"....        ....",
"................",
"................",
"................",
"................"
};
