/* XPM */
static char *right-color[] = {
/* width height num_colors chars_per_pixel */
"    16    16        6            1",
/* colors */
"  c None s None",
". c #000000",
"* c #808080",
"@ c #c0c0c0",
"# c #ffffff",
"a c #ff00ff",
/* pixels */
"                ",
"  *********     ",
" .*@@@@@@@@*    ",
" .**########*   ",
" .**#......#*   ",
" .**#aaaaa.#*   ",
" .**#aaaaa.#*   ",
" .**#aaaaa.#*   ",
"**.*########*   ",
".@*.........*   ",
".*@*#########*  ",
".**.*.*.*.*.**  ",
" ..@.@.@.@.@.@* ",
"  .@###########*",
"   .............",
"                "
};
