/* XPM */
static char * abe_xpm[] = {
"32 32 8 1",
" 	c None",
".	c #000000",
"+	c #FFB848",
"@	c #FFFFFF",
"#	c #6E6E6E",
"$	c #00AAFF",
"%	c #FF0000",
"&	c #0055FF",
"                                ",
"                     .  .       ",
"                    .....       ",
"                    .+.+...     ",
"                   ..+++.+.     ",
"                 ...+++++..     ",
"                .+++++++++.     ",
"               .+++++++++.      ",
"              .+.++++++++.      ",
"             .++++...+++++.     ",
"            ..+++++.++++++.     ",
"           .++++..++++++++.     ",
"          .....+++.+++++++.     ",
"         .@@@.@..++.++.++.      ",
"       ...@.@.@@@.+.++.++.      ",
"       .@..@..@@@@.+++.++.      ",
"       ..++.@@.@.@@..++...      ",
"      .++++.@@..@@.+++.++.      ",
"      .+++++..++......+..+.     ",
"      .........++++++.+.++.     ",
"    ..#########.++++++.++.      ",
"   .###########.++++++.+.       ",
"  .#############.+++.++..       ",
"   ........######.+++..+.       ",
"       ..######.#.++++++.       ",
"         ..#####.++++++.        ",
"          .#####.++.+.+..       ",
"           ..###.++.+.+.$.      ",
"          .$$...++.+...$$$.     ",
"         .$$..$.....$$$$$...    ",
"        .$$.%.$$$$$$$$$$.&&&.   ",
"       .......................  "};
