/* XPM */
static char * barney_xpm[] = {
"32 32 9 1",
" 	c None",
".	c #000000",
"+	c #966200",
"@	c #FFB848",
"#	c #FFFFFF",
"$	c #E2B1FF",
"%	c #F2F2F2",
"&	c #FF0000",
"*	c #730000",
"                                ",
"        .    ..    .  ..        ",
"        ..  .++....+...         ",
"      ...+..+++++++++++..       ",
"       .+++++.++++++++.         ",
"        .++..+++++++..@.        ",
"      ..++.++++.++..@@@@.       ",
"     ..+++.+++.@..@@@@@@@.      ",
"      .++++.+.@@.@@@@@.@@...    ",
"     .+++++..@@@@@@@@@.@@@@@.   ",
"    .+++++..@@@.............    ",
"   .++....@.@@.######.@.###.    ",
"   .+.@.@@@@@@.######.@@.#..    ",
"   .+.@@@@@@@@.##.##.@@@@...    ",
"  ..++....@@@@@.###..@@@@@@@.   ",
" ..@..@@@@@@@@@@....@@@.....    ",
".$$.@@@@@@@@@@@@@@@@@@@@@@@@... ",
".$$$.@@@@@@@@@@@@@@@@@@@@@@@@@. ",
".$$$.@@@@@@@@.....@@..@@..@@@.  ",
".$$$$.@@@@@@..%.........  ...   ",
".$.$$.@@@@@@.....#.#..#.        ",
"..@.$$.@@@@@.&&.&....@.         ",
".@@@.$$.@@@@@.&&&*....@.        ",
".@@@@.$$.@@@@@........@.        ",
".@@@@.$$$.@@@.@@@@@@@...        ",
".@@@@.$$$$.@@@...@@@.$$..       ",
".@@@@@.$$$$...@@@@..@.$$..      ",
".@@@@@.$$$$.@@....@@@.$$.@.     ",
".@@@@@.$$$$.@@@@@@@@@.$$.@@.    ",
".@@@@@@.$$$$.@@.@.@.@.$$$.@.    ",
".@@@@@@.$$$$$..@@.@@.$$$$.@@.   ",
".............................   "};
