/* XPM */
static char * bart_xpm[] = {
"32 32 5 1",
" 	c None",
".	c #000000",
"+	c #FFB848",
"@	c #FFFFFF",
"#	c #8E8EFF",
"                                ",
"          . . . .               ",
"          ..+.+.. .             ",
"          .++++++.. .           ",
"          .++++++++.. .         ",
"          .++++++++++.. .       ",
"         .+++++++++++++.. .     ",
"         .+++++++++++++++..     ",
"         .++++++++++++++++.     ",
"        .++++++++++++++++.      ",
"        .+++++++++++++++.       ",
"       .++++++++++++++++.       ",
"      ....++....+++++++.        ",
"     .@@@@..@@@@.++++++.        ",
"    .@@.@@.@@@@@@.+++++.        ",
"    .@@@@.@@@.@@@.++++.         ",
"    .@@@@.@@@@@@@.++++.         ",
"     .....@@@@@@@.++++.         ",
"     .++++.@@@@@.++++.          ",
"     .+++++.@@@.++++..          ",
"      ...+++...++++.++.         ",
"     .++++++++++++++.+.         ",
"    .++++++++++++++.+.          ",
"    .+++++++++++++++.           ",
"     ..++++++++.++++.           ",
"       ........+++++.           ",
"           .++++++++.           ",
"            ..+++++++.          ",
"             .++++++++.         ",
"             .+++++++.#..       ",
"            .#.+++++.####.      ",
"           ................     "};
