/* XPM */
static char * carl_xpm[] = {
"32 32 6 1",
" 	c None",
".	c #000000",
"+	c #966200",
"@	c #FFFFFF",
"#	c #FF5500",
"$	c #FF0000",
"                                ",
"                                ",
"             .....              ",
"           ........             ",
"          .......++.            ",
"         .......++++.           ",
"         .....+++++++.          ",
"        ......++++++++.         ",
"        ......++++++++.         ",
"        ......+++++++++.        ",
"        ......+++++..++..       ",
"        .......++++++.+++.      ",
"        .......+++...+++..      ",
"         ......++.@@@.+.@@.     ",
"         ......++.@.@.+..@.     ",
"          .....+++...+++..      ",
"          ....++++++.+++.+      ",
"          ....+++++.+++++.      ",
"          .+.++++++++++++..     ",
"          .++++++++++.++++.     ",
"           ..+++++++++..++.     ",
"            .+++++++++++..      ",
"            .+++..+++++++.      ",
"            .+++......++++.     ",
"            .+++.#... ..++.     ",
"            .++++..#.   ..      ",
"          ...+++++....          ",
"        ..@.++++++++..          ",
"       .@@@.+++++++.            ",
"      .@@..$.+++++..            ",
"     .@@@.$$.++++.@@.           ",
"     .................          "};
