/* XPM */
static char * cbg_xpm[] = {
"32 32 9 1",
" 	c None",
".	c #000000",
"+	c #DC4900",
"@	c #FFB848",
"#	c #FFFFFF",
"$	c #FF6BFF",
"%	c #2557FF",
"&	c #FFAA00",
"*	c #FF6B6B",
"          .........             ",
"        ..+++++++++...          ",
"       .++++++.....@@@..        ",
"      .++++++.@@@@@@@@@@.       ",
"     .++++++.@@@@@@@@@@@@.      ",
"     .+++++++.@@@@@@@@@@@@.     ",
"    .++++++++.@@@@@@@@@@@@.     ",
"    .+++++++.@@@@@@@@@@@@@@.    ",
"   .++++++++.@@@@@@@@@@@@@@@.   ",
"   .++...++.@@@@@.....@@@...    ",
"   .+.@@.++.@@@@.#####.@.###.   ",
"   .+.@@@.+.@@@@.###.#.@.#.#.   ",
"  ..++..@...@@@@@.....@@@...    ",
"..$$...@@@@@@@@@@@@@.@@@@@.@.   ",
".+.$$.@@@@@@@@@@@...@@@@@@@..   ",
".++..@@@@@@@@@@@@@@@@@@.@@@.@.  ",
".+.%.@@@@@@@@@@@@.@@@.@@...@@.  ",
"..%%.@@@@@@@@@@@.&.@.&.@@@.@@.. ",
".%%%.@@@@@@@@@@.&&&.&&&.@.&..&&.",
".%%%.@@@@@@@@@.&&.....&&.&&&.&. ",
".%%%%.@@@@@@@.&&.....&........  ",
".%%%%.@@@@@@.&&&..**.&.         ",
".%%%%%.@@@@@.&.&&....&..        ",
".%%%%%%.@@@@..@.&&&&&&&.        ",
".%%%%%%%.@@@@@@.&..&&.&.        ",
".%%%%%%%%.@@@@@..@.&.@..        ",
".%%%%%%%%%.@@@@@@@@.@@.%.       ",
".%%%%%%%%%%..@@@@@@@@..%%.      ",
".%%%%%%%%%%%%..@@@@..@.%%%.     ",
".%%%%%%%%%%%%%%..@@@@.%%%%%.    ",
".%%%%%%%%%%%%%%%%....%%%%%%%.   ",
"..............................  "};
