/* XPM */
static char * cbg48_xpm[] = {
"48 48 559 2",
"  	c None",
". 	c #847880",
"+ 	c #674A4E",
"@ 	c #624642",
"# 	c #694C44",
"$ 	c #775D54",
"% 	c #422110",
"& 	c #664A4F",
"* 	c #572C0D",
"= 	c #6F3110",
"- 	c #824016",
"; 	c #884218",
"> 	c #864218",
", 	c #7B3A12",
"' 	c #5C2B12",
") 	c #462D2D",
"! 	c #68310D",
"~ 	c #804014",
"{ 	c #844218",
"] 	c #6F3614",
"^ 	c #5A2714",
"/ 	c #56270A",
"( 	c #633112",
"_ 	c #422010",
": 	c #3A140C",
"< 	c #78626B",
"[ 	c #694838",
"} 	c #7A3814",
"| 	c #5C2712",
"1 	c #5A2F0C",
"2 	c #AF7B0E",
"3 	c #E2B110",
"4 	c #FBC610",
"5 	c #FFCC10",
"6 	c #F1BB10",
"7 	c #CC980E",
"8 	c #9C6B14",
"9 	c #6E4423",
"0 	c #564A4A",
"a 	c #523A3E",
"b 	c #6E3010",
"c 	c #7E3E16",
"d 	c #52290E",
"e 	c #C3900E",
"f 	c #FDCC10",
"g 	c #FFCE10",
"h 	c #FFD010",
"i 	c #FDCA10",
"j 	c #CC9810",
"k 	c #734718",
"l 	c #766266",
"m 	c #763512",
"n 	c #733814",
"o 	c #5C2F0C",
"p 	c #E8B710",
"q 	c #FDCE10",
"r 	c #8E6118",
"s 	c #6D3810",
"t 	c #783E14",
"u 	c #3E1D0A",
"v 	c #ECB910",
"w 	c #C0890D",
"x 	c #673520",
"y 	c #6F4210",
"z 	c #805A25",
"A 	c #4F2116",
"B 	c #844016",
"C 	c #6D3616",
"D 	c #BB8E12",
"E 	c #F1BE10",
"F 	c #BD8A0C",
"G 	c #79522C",
"H 	c #56423E",
"I 	c #7C3A12",
"J 	c #673610",
"K 	c #F3C412",
"L 	c #EABC12",
"M 	c #9E7512",
"N 	c #6B3822",
"O 	c #7C3E16",
"P 	c #926510",
"Q 	c #DAB112",
"R 	c #8A6110",
"S 	c #E2BB14",
"T 	c #4A3516",
"U 	c #4A353A",
"V 	c #753A12",
"W 	c #63330E",
"X 	c #C4A016",
"Y 	c #A27610",
"Z 	c #EEC212",
"` 	c #B99A14",
" .	c #B39414",
"..	c #8E7118",
"+.	c #6D4833",
"@.	c #847169",
"#.	c #522E2E",
"$.	c #864016",
"%.	c #65330E",
"&.	c #FFCA10",
"*.	c #F5C614",
"=.	c #E0BC18",
"-.	c #C5A516",
";.	c #9A7E16",
">.	c #483518",
",.	c #CAA012",
"'.	c #E2B714",
").	c #503A2D",
"!.	c #B99A88",
"~.	c #DAC8BD",
"{.	c #FFFDF9",
"].	c #FFFFFF",
"^.	c #7C6F78",
"/.	c #653523",
"(.	c #7B5010",
"_.	c #FFD210",
":.	c #E2B914",
"<.	c #9E8218",
"[.	c #715420",
"}.	c #715440",
"|.	c #886F5A",
"1.	c #AD9080",
"2.	c #D2BFB3",
"3.	c #F1E6E0",
"4.	c #755A31",
"5.	c #FBCA10",
"6.	c #755837",
"7.	c #FDFDFD",
"8.	c #8E868E",
"9.	c #692D10",
"0.	c #843E18",
"a.	c #542912",
"b.	c #52230A",
"c.	c #54200E",
"d.	c #4C250E",
"e.	c #6B3614",
"f.	c #C08A10",
"g.	c #F3C414",
"h.	c #4C3620",
"i.	c #CAB9A7",
"j.	c #FDF7EF",
"k.	c #8A7C80",
"l.	c #E0AF10",
"m.	c #BB8A12",
"n.	c #B9B5B7",
"o.	c #FBFBFB",
"p.	c #D2D2D6",
"q.	c #787383",
"r.	c #736B73",
"s.	c #733610",
"t.	c #7E4016",
"u.	c #50230E",
"v.	c #C88C1A",
"w.	c #EBAD25",
"x.	c #E0A223",
"y.	c #5C3510",
"z.	c #5E330E",
"A.	c #F3BE10",
"B.	c #7B6152",
"C.	c #92868C",
"D.	c #DEAD10",
"E.	c #FBC810",
"F.	c #73542B",
"G.	c #D8D6D8",
"H.	c #A09EA9",
"I.	c #14080C",
"J.	c #2D2127",
"K.	c #5A464E",
"L.	c #783E12",
"M.	c #5C290E",
"N.	c #B1881A",
"O.	c #503A16",
"P.	c #402310",
"Q.	c #6D5018",
"R.	c #826018",
"S.	c #6F3814",
"T.	c #8A5A0E",
"U.	c #75521C",
"V.	c #E8E4E0",
"W.	c #F7F7F9",
"X.	c #E0E0E6",
"Y.	c #7E634E",
"Z.	c #F3C610",
"`.	c #71522B",
" +	c #524C52",
".+	c #67420E",
"++	c #9C6F0E",
"@+	c #66565A",
"#+	c #3E291C",
"$+	c #7E3C16",
"%+	c #6B400C",
"&+	c #F5C410",
"*+	c #7C560E",
"=+	c #B78A10",
"-+	c #DCA912",
";+	c #632F10",
">+	c #986B10",
",+	c #DAA710",
"'+	c #756056",
")+	c #EAEAEC",
"!+	c #77717B",
"~+	c #2D1A1E",
"{+	c #5A4646",
"]+	c #CE9A10",
"^+	c #6D440E",
"/+	c #DAAF14",
"(+	c #F1C010",
"_+	c #25140C",
":+	c #523621",
"<+	c #823E14",
"[+	c #633510",
"}+	c #EEC412",
"|+	c #DAA910",
"1+	c #966912",
"2+	c #A27510",
"3+	c #623110",
"4+	c #6B4610",
"5+	c #E4B110",
"6+	c #8E6527",
"7+	c #756767",
"8+	c #827B84",
"9+	c #402B2D",
"0+	c #67400E",
"a+	c #DEAB10",
"b+	c #F5C610",
"c+	c #7B4C10",
"d+	c #987E14",
"e+	c #523E46",
"f+	c #733A12",
"g+	c #783A16",
"h+	c #644812",
"i+	c #CEAB14",
"j+	c #EFC212",
"k+	c #CC9A0E",
"l+	c #905C0C",
"m+	c #714610",
"n+	c #6F4410",
"o+	c #A56F0E",
"p+	c #EFBB10",
"q+	c #E6B510",
"r+	c #D6AD14",
"s+	c #F3C212",
"t+	c #C69612",
"u+	c #2D140C",
"v+	c #686068",
"w+	c #6B2D10",
"x+	c #763A16",
"y+	c #5C330C",
"z+	c #7D500E",
"A+	c #885A10",
"B+	c #F9C612",
"C+	c #FDCE12",
"D+	c #E8BF14",
"E+	c #927514",
"F+	c #805412",
"G+	c #F1C012",
"H+	c #6D4E12",
"I+	c #84581E",
"J+	c #3E2123",
"K+	c #521A10",
"L+	c #441F10",
"M+	c #582F0E",
"N+	c #F7C610",
"O+	c #8E6714",
"P+	c #6F4C14",
"Q+	c #755414",
"R+	c #735214",
"S+	c #845C12",
"T+	c #C89410",
"U+	c #F9C610",
"V+	c #B39216",
"W+	c #A67910",
"X+	c #B18612",
"Y+	c #624A44",
"Z+	c #42140C",
"`+	c #732F1C",
" @	c #732B18",
".@	c #582514",
"+@	c #2F180C",
"@@	c #82540C",
"#@	c #C89812",
"$@	c #6F4E14",
"%@	c #A78414",
"&@	c #AF9014",
"*@	c #795C14",
"=@	c #754E12",
"-@	c #AB8614",
";@	c #4F3431",
">@	c #441612",
",@	c #732F18",
"'@	c #732F1A",
")@	c #753316",
"!@	c #5E2914",
"~@	c #885A0C",
"{@	c #FBCA12",
"]@	c #D2AD14",
"^@	c #C89210",
"/@	c #7E5C14",
"(@	c #C8A016",
"_@	c #564012",
":@	c #B99416",
"<@	c #482910",
"[@	c #3E2110",
"}@	c #473F45",
"|@	c #3F2126",
"1@	c #6D2B14",
"2@	c #753116",
"3@	c #682F18",
"4@	c #795412",
"5@	c #F9CA12",
"6@	c #FBCE12",
"7@	c #674814",
"8@	c #865C12",
"9@	c #907114",
"0@	c #6D460E",
"a@	c #644412",
"b@	c #8C7514",
"c@	c #71480E",
"d@	c #75460E",
"e@	c #A68814",
"f@	c #604814",
"g@	c #9E7110",
"h@	c #36180E",
"i@	c #4E331E",
"j@	c #4A1A0E",
"k@	c #77331C",
"l@	c #773118",
"m@	c #77351A",
"n@	c #56311A",
"o@	c #331C1E",
"p@	c #3A2710",
"q@	c #826516",
"r@	c #502F0E",
"s@	c #776118",
"t@	c #BE8C10",
"u@	c #9A7310",
"v@	c #6F5414",
"w@	c #9A7110",
"x@	c #C49810",
"y@	c #82580C",
"z@	c #B58610",
"A@	c #E8B510",
"B@	c #DCB314",
"C@	c #312418",
"D@	c #341B16",
"E@	c #692D18",
"F@	c #71351C",
"G@	c #422118",
"H@	c #2F1E31",
"I@	c #5F549C",
"J@	c #3C314C",
"K@	c #BB9814",
"L@	c #8C6610",
"M@	c #D4A712",
"N@	c #7B540E",
"O@	c #B37E0E",
"P@	c #FBCC12",
"Q@	c #BB9414",
"R@	c #2C1E0E",
"S@	c #73666F",
"T@	c #371313",
"U@	c #5C2314",
"V@	c #75331C",
"W@	c #6D331A",
"X@	c #311818",
"Y@	c #3E3158",
"Z@	c #6158A5",
"`@	c #635AA5",
" #	c #5F56A3",
".#	c #443333",
"+#	c #E4BC16",
"@#	c #967514",
"##	c #D4A210",
"$#	c #DEB514",
"%#	c #C8A614",
"&#	c #BF9C14",
"*#	c #B79814",
"=#	c #B39614",
"-#	c #B19014",
";#	c #A48414",
">#	c #906D12",
",#	c #8C6A10",
"'#	c #6F5614",
")#	c #544227",
"!#	c #312025",
"~#	c #381C1C",
"{#	c #411A10",
"]#	c #692B16",
"^#	c #732D18",
"/#	c #733118",
"(#	c #692D1C",
"_#	c #291414",
":#	c #4C4067",
"<#	c #635AA7",
"[#	c #585092",
"}#	c #523A25",
"|#	c #EEC612",
"1#	c #6F5012",
"2#	c #BD9414",
"3#	c #6F4C10",
"4#	c #926B10",
"5#	c #A97510",
"6#	c #A87A0E",
"7#	c #B78810",
"8#	c #B7860E",
"9#	c #694810",
"0#	c #473137",
"a#	c #332325",
"b#	c #4E2516",
"c#	c #6D2F1A",
"d#	c #73311C",
"e#	c #5C2F1A",
"f#	c #311A20",
"g#	c #544C86",
"h#	c #564E8A",
"i#	c #4E3B1C",
"j#	c #F7C612",
"k#	c #7C5410",
"l#	c #F5C210",
"m#	c #9C7914",
"n#	c #31252D",
"o#	c #211210",
"p#	c #2D1610",
"q#	c #22161A",
"r#	c #564E88",
"s#	c #4E4682",
"t#	c #523E1A",
"u#	c #F3C812",
"v#	c #D0A714",
"w#	c #9A6D0E",
"x#	c #967314",
"y#	c #20101A",
"z#	c #1C1421",
"A#	c #544E88",
"B#	c #5A421C",
"C#	c #F5CA12",
"D#	c #B98C10",
"E#	c #B58E12",
"F#	c #866F14",
"G#	c #B38A12",
"H#	c #E8BE14",
"I#	c #F5C612",
"J#	c #6B5819",
"K#	c #271A27",
"L#	c #251C35",
"M#	c #524A84",
"N#	c #6D561A",
"O#	c #B38612",
"P#	c #3E290E",
"Q#	c #7D540C",
"R#	c #815A10",
"S#	c #CAA416",
"T#	c #38220E",
"U#	c #A97B10",
"V#	c #463110",
"W#	c #D0A010",
"X#	c #604A12",
"Y#	c #080004",
"Z#	c #372C39",
"`#	c #2F294A",
" $	c #3C3150",
".$	c #635AA9",
"+$	c #4A4271",
"@$	c #65501A",
"#$	c #F7CA12",
"$$	c #EEBE10",
"%$	c #CC960E",
"&$	c #422F12",
"*$	c #624010",
"=$	c #967114",
"-$	c #A57C16",
";$	c #6D5012",
">$	c #603910",
",$	c #C89A10",
"'$	c #AD8E16",
")$	c #3E2710",
"!$	c #2F2340",
"~$	c #271C35",
"{$	c #5F569E",
"]$	c #4A4071",
"^$	c #5E4A1A",
"/$	c #F1C814",
"($	c #B7820E",
"_$	c #B78610",
":$	c #3C2910",
"<$	c #AF8210",
"[$	c #A07912",
"}$	c #8C6D16",
"|$	c #503310",
"1$	c #3A2D10",
"2$	c #29161E",
"3$	c #2D2344",
"4$	c #544C8A",
"5$	c #524A86",
"6$	c #4E3C22",
"7$	c #E4B912",
"8$	c #96650E",
"9$	c #AD7710",
"0$	c #2B120C",
"a$	c #5A4616",
"b$	c #624210",
"c$	c #2B1C25",
"d$	c #42343F",
"e$	c #3A3152",
"f$	c #584E90",
"g$	c #442F29",
"h$	c #C8A51A",
"i$	c #B98E14",
"j$	c #6D4410",
"k$	c #3E2D2B",
"l$	c #42375C",
"m$	c #5D569C",
"n$	c #5F569C",
"o$	c #3B2F4C",
"p$	c #564020",
"q$	c #615AA5",
"r$	c #3C2E50",
"s$	c #444071",
"t$	c #4C3E20",
"u$	c #D6B318",
"v$	c #56421C",
"w$	c #5E589E",
"x$	c #5B529A",
"y$	c #4F4460",
"z$	c #5B5298",
"A$	c #3C2F42",
"B$	c #F3C416",
"C$	c #392D2F",
"D$	c #4A425A",
"E$	c #463D64",
"F$	c #503C1E",
"G$	c #D4AB14",
"H$	c #B1961D",
"I$	c #443761",
"J$	c #5D549C",
"K$	c #413455",
"L$	c #3A3146",
"M$	c #564018",
"N$	c #B99818",
"O$	c #EFC216",
"P$	c #B39A1E",
"Q$	c #372D25",
"R$	c #443B5C",
"S$	c #585296",
"T$	c #443B69",
"U$	c #3A3135",
"V$	c #5C441A",
"W$	c #735E18",
"X$	c #7A631A",
"Y$	c #423325",
"Z$	c #3A2F50",
"`$	c #5D5492",
" %	c #423763",
".%	c #5C549A",
"+%	c #565090",
"@%	c #564C8E",
"#%	c #5A5294",
"$%	c #6158A3",
"%%	c #524C88",
"                                          .   + @ # $ %                                         ",
"                                      & * = - ; ; ; ; > , '                                     ",
"                                  ) ! ~ > { { { { { ] ^ / ( _ : <                               ",
"                                [ } { { { { { { | 1 2 3 4 5 5 6 7 8 9 0                         ",
"                            a b { { { { { { c d e f g g g g g g g h i j k                       ",
"                          l m { { { { { { n o p 5 g g g g g g g g g g 5 q r                     ",
"                          s { { { { { { t u v g g g g g g g g g g g g g g h w                   ",
"                        x > { { { { { { { y i g g g g g g g g g g g g g g g h z                 ",
"                      A B { { { { { { { { C D h g g g g g g g g g g g g g g g E F G             ",
"                    H I { { { { { { { { { { J p g g g g g g g g g g K L g g g g g M             ",
"                    N { { { { { { { { { { { O P h g g g g g g g g g Q R h g g h S T             ",
"                  U V { { { { { { { { { { { > W 5 g g g g g g g g g X Y Z `  ...+.@.            ",
"                  #.$.{ { { { { { { { { { { { %.&.g g g g g *.=.-.;.>.,.'.).!.~.{.].^.          ",
"                  /.{ { { > ; { { { { { { { { (._.g g :.<.[.}.|.1.2.3.4.5.6.7.].].].8.          ",
"                  9.{ { 0.a.b.c.d.> { { { { e.f.g g g.h.i.j.].].].].].k.l.m.n.].o.p.q.          ",
"                r.s.{ t.u.v.w.x.y.{ { { { > z.i g g A.B.].].].].].].].C.D.E.F.G.H.I.J.          ",
"                K.L.{ M.N.O.P.Q.R.S.{ { { - T.h g g h U.V.].].].W.X.o.Y.E.g Z.`. +.+++@+        ",
"                #+$+{ %+&+*+=+3 -+;+> { { - >+h g g g ,+'+)+].].!+~+{+]+g g g &+^+/+(+_+        ",
"                :+<+{ [+}+|+1+g h 2+3+t.{ > 4+h g g g g 5+6+7+8+9+0+a+g g g g g b+c+d+          ",
"                e+f+{ g+h+i+j+g g 5 k+l+m+n+o+h g g g g g g p+q+p+_.r+s+g g g g g t+u+          ",
"                v+w+{ x+y+z+A+5 g g g h _.h h g g g g g B+g g C+D+E+F+i g g g g g G+H+I+        ",
"              J+K+L+B M+N+h h g g g g g g g g g g g g &.O+P+Q+R+S+T+5 g U+i g g h V+W+h X+Y+    ",
"            Z+`+ @.@+@@@g g g g g g g g g g g g g g g g g g g g h g g g #@$@%@&@*@=@E.g h -@;@  ",
"          >@ @,@'@)@!@~@_.g g g g g g g g g g g g g g g g g g g {@{@g g ]@L ^@/@#@h (@_@:@<@[@}@",
"        |@1@'@2@,@2@3@4@h g g g g g g g g g g g g g g g g 5@'.6@7@8@h 9@0@a@b@c@d@e@f@g@h@v |+i@",
"        j@k@l@)@m@n@o@p@E.g g g g g g g g g g g g g g g g q@r@s@t@u@v@w@g x@y@g f >+z@g A@&.B@C@",
"      D@E@2@'@F@G@H@I@J@K@g g g g g g g g g g g g g g g B@L@M@N@g E.O@5 g g h g g h g 5 P@Q@R@  ",
"  S@T@U@,@V@W@X@Y@Z@`@ #.#+#g g g g g g g g g g g g g g @###g g 5@$#%#&#` *#=#-#;#>#,#'#)#!#    ",
"~#{#]#^#/#(#_#:#<#`@`@`@[#}#|#g g g g g g g g g g g g g 1#i g 2#3#4#5#6#7#8#=+9#0#              ",
"a#b#c#d#e#f#g#<#`@`@`@`@<#h#i#|#g g g g g g g g g g g j#k#_.g l#g g g g g g g m#.               ",
"  n#o#p#q#r#<#`@`@`@`@`@`@<#s#t#u#g g g g g g g g g g v#w#g g g g g g g g g g x#                ",
"    y#z#r#<#`@`@`@`@`@`@`@`@<#A#B#C#g g g g g g g g g D#E#F#G#g H#I#g 5@i g }+J#                ",
"  K#L#M#<#`@`@`@`@`@`@`@`@`@`@<#s#N#P@g g g g g g g g O#P#Q#R#S#T#U#|#V#W#h X#Y#                ",
"Z#`# $.$`@`@`@`@`@`@`@`@`@`@`@`@<#+$@$#$g g g g g g g $$%$5@&$*$=$-$;$>$,$'$)$                  ",
"!$~${$`@`@`@`@`@`@`@`@`@`@`@`@`@`@<#]$^$/$g g g g g g g g g ($l#_$:$<$[$}$|$1$2$                ",
"3$4$`@`@`@`@`@`@`@`@`@`@`@`@`@`@`@`@<#5$6$7$g g g g g g g g g g ,+8$5 9$0$a$b$c$d$              ",
"e$.$`@`@`@`@`@`@`@`@`@`@`@`@`@`@`@`@`@<#f$g$h$h g g g g g g g g g h g A@i$j$B+k$l$              ",
"m$`@`@`@`@`@`@`@`@`@`@`@`@`@`@`@`@`@`@`@`@n$o$q@u#g g g g g g g g g g g i i h p$q$r$            ",
"<#`@`@`@`@`@`@`@`@`@`@`@`@`@`@`@`@`@`@`@`@`@.$s$t$u$h g g g g g g g g g g g h v$w$x$y$          ",
"`@`@`@`@`@`@`@`@`@`@`@`@`@`@`@`@`@`@`@`@`@`@`@<#z$A$@#{@g g g g g g g g g g B$C$`@`@x$D$        ",
"`@`@`@`@`@`@`@`@`@`@`@`@`@`@`@`@`@`@`@`@`@`@`@`@`@<#E$F$G$h g g g g g g g g H$I$<#`@`@J$K$      ",
"`@`@`@`@`@`@`@`@`@`@`@`@`@`@`@`@`@`@`@`@`@`@`@`@`@`@<#z$L$M$N$O$h h g h 5@P$Q${$`@`@`@`@Z@R$    ",
"`@`@`@`@`@`@`@`@`@`@`@`@`@`@`@`@`@`@`@`@`@`@`@`@`@`@`@`@.$S$T$U$V$W$X$^$Y$Z$`$`@`@`@`@`@`@<# %  ",
"`@`@`@`@`@`@`@`@`@`@`@`@`@`@`@`@`@`@`@`@`@`@`@`@`@`@`@`@`@`@<#<#.%+%@%#%$%.$`@`@`@`@`@`@`@`@<#%%",
"`@`@`@`@`@`@`@`@`@`@`@`@`@`@`@`@`@`@`@`@`@`@`@`@`@`@`@`@`@`@`@`@`@`@`@`@`@`@`@`@`@`@`@`@`@`@`@<#",
"`@`@`@`@`@`@`@`@`@`@`@`@`@`@`@`@`@`@`@`@`@`@`@`@`@`@`@`@`@`@`@`@`@`@`@`@`@`@`@`@`@`@`@`@`@`@`@`@",
"`@`@`@`@`@`@`@`@`@`@`@`@`@`@`@`@`@`@`@`@`@`@`@`@`@`@`@`@`@`@`@`@`@`@`@`@`@`@`@`@`@`@`@`@`@`@`@`@",
"`@`@`@`@`@`@`@`@`@`@`@`@`@`@`@`@`@`@`@`@`@`@`@`@`@`@`@`@`@`@`@`@`@`@`@`@`@`@`@`@`@`@`@`@`@`@`@`@"};
