/* XPM */
static char * chief_xpm[] = {
"32 32 10 1",
" 	c None",
".	c #000000",
"+	c #0E0E0E",
"@	c #5500FF",
"#	c #FEFE00",
"$	c #FFB848",
"%	c #323232",
"&	c #FFFFFF",
"*	c #00AAFF",
"=	c #00FEFE",
"                                ",
"              .      .          ",
"              ..    ..+         ",
"             .@@....@@@..       ",
"       ....+.@@@@@@@@@@@@.      ",
"        .@@@@@@@@@@.@@@@@@.     ",
"       .@@@@@@@@@..#..@@@@.     ",
"      .@@@@@@@@@..####....      ",
"     .@@@@@.....$.####.$$.      ",
"    .@@@@@@.$$$$$$.#......      ",
"   .@@@@@..$$.......@@@@@.      ",
"   ...@@.$$..%%.@@@@@....@.     ",
"      .....%%..$.....@@@@@@.    ",
"        .%%%%.$$$$$$$...@..     ",
"       ..%%%%.$$....$.&&.       ",
"       .%%%%.$$.&&&&.&&&&.      ",
"       .%%%%.$$.&&&&&.&.&.      ",
"       ...%%.$$.&.&&&....       ",
"      .$$$.%.$$.&&&&.$$$$.      ",
"      .$$$$+.$$$....$.$$.       ",
"       ..$$$$$$$$$$$$$$$$.      ",
"       .$$$$$$$$$$$$$$$$$$.     ",
"      .$$$$$$$$$$$$$$$$$$$$.    ",
"      .$$$$$$$$$$$$$$$$$$$$$.   ",
"       .$$$$$$$$........$$$$.   ",
"       .$$$$$$$$$$$$$$$.....    ",
"      .*..$$$$$$$$$$$$.         ",
"     ..***.$$$$$$$$$$.          ",
"    .@@.***...$$$$$+.*.         ",
"   .@@@@.****......**.@.        ",
"   .@@@@@.**.===.***.@@@.       ",
"  .......................       "};
