/* XPM */
static char * grex_xpm[] = {
"32 32 12 1",
" 	c None",
".	c #000000",
"+	c #FFB848",
"@	c #323232",
"#	c #3E3E3E",
"$	c #B6B6B6",
"%	c #FFFFFF",
"&	c #0E0E0E",
"*	c #626262",
"=	c #262626",
"-	c #E3D4FF",
";	c #6E6E6E",
"           .......              ",
"         ..+++++++..            ",
"        .+++++++++++.           ",
"       .+++++@@++++++.    #     ",
"     ...++++@++@++++++.  .#     ",
"    .+++++@@+++++++++++..$.     ",
"    .+++++++++++++++....$$..    ",
"    ..+++++.+++++++.$$$$$$$$.   ",
"   .++++++.++++++.++..$$$$$$.#  ",
"  .+++++++......+.++.$$$$$$.    ",
"  ......++.%%%....+.$$.$$$$$..  ",
"  .%%..+++.%%%%%%.++..$$....$&  ",
"  .%%%.+++.%%%%%%.+++.$.++++.   ",
"   ...+++++.%%%%.++++..++..+.   ",
"   .+.++++++....++@+++++.+++.   ",
"   ..+++++++@++++@+++++.++++.   ",
"    .++++++++@@@@+*+++++++++.   ",
"   ..++++++.++****+++++.+++.    ",
"  .++.+++++.+++++++++++....     ",
" .++++.+++.++++++++++++.        ",
".++++++...+++++++..+++.         ",
".++++++++++.+++..++.+++.. ...   ",
".++.+++.+++....%=++++++++.---.. ",
" ..;... ...++=%%=+++++++++.----.",
"         .++++==+++++@+++++.---.",
"          ...+++++++++@@@++.---.",
"             ....++++++++@+.---.",
"                 .++++++++@.---.",
"                .-..@++++++.---.",
"                .--.+@@@+++.---.",
"               .---.+++++++.---.",
"               ................."};
