/* XPM */
static char * homer_xpm[] = {
"32 32 5 1",
" 	c None",
".	c #000000",
"+	c #FFB848",
"@	c #FFFFFF",
"#	c #B97A00",
"        ....                    ",
"       ...  .                   ",
"      ..  ......                ",
"     . ...++++++..              ",
"     . .++++++++++.             ",
"      .+.++++++++++.            ",
"      .++++++++++++.            ",
"     .++++++++++++++.           ",
"     .++++++++++++++...         ",
"     .+++++++++.....@@@.        ",
"     .++++++++.@@@@.@@@@.       ",
"     .+++++++.@@@@@@.@.@.       ",
"     .+++++++.@@@@@@.@@@.       ",
"      .++.+++.@@.@@@....        ",
"      .++..+++.@@@@.++++.       ",
"      ...++.+++....+++++.       ",
"      . ..++++++++++....        ",
"      . ...++++++...####.       ",
"        .+++++++.########.      ",
"        .++.+++.#########.      ",
"         ..+++.###########.     ",
"          .+++.#.#########.     ",
"          .+++.#..........      ",
"          .+++.#######.         ",
"          .++++.#####.          ",
"          .++++.#####.          ",
"         ..+++++.###.           ",
"        .@@..++++.....          ",
"        .@@@@..+++++.@.         ",
"       ..@@@@@@..+++.@@.        ",
"      .@@.@@@@@@..++.@@@.       ",
"     .....................      "};
