/* XPM */
static char * knoppix_xpm[] = {
"32 32 9 1",
" 	c None",
".	c #000000",
"+	c #323232",
"@	c #6BFF6B",
"#	c #A0A0A4",
"$	c #00DC49",
"%	c #503200",
"&	c #005000",
"*	c #629600",
"                ....            ",
"               .+@@#.           ",
"               .@+++.           ",
"               .@@@#.           ",
"              $%@@@#%           ",
"              %@&@#%$           ",
"              .+@+#.            ",
"              .@&@#.            ",
"              .@&@#%            ",
"             $%+@#%$            ",
"             %*&@#.             ",
"             .*+@#.             ",
"             .*@@#.             ",
"             .*@@#%             ",
"            $%@@#%$             ",
"            %*@@#.              ",
"            .*@@#.              ",
"            .*@@#.              ",
"            .*@@#%              ",
"           $%@@#%$              ",
"           %*@@#.               ",
"           .*@@#.               ",
"           .*@@#.               ",
"           .*@@#.               ",
"           .*@@#%               ",
"          $%@@#%$               ",
"          %*@@#.                ",
"          .*@@#.                ",
"          .*@@#.                ",
"          .*@@#.                ",
"          .*@@#.                ",
"           ....                 "};
