/* XPM */
static char * lenny_xpm[] = {
"32 32 7 1",
" 	c None",
".	c #000000",
"+	c #966200",
"@	c #FFB848",
"#	c #FFFFFF",
"$	c #B97A00",
"%	c #008000",
"                                ",
"                                ",
"              .......           ",
"            ..+++.+.+..         ",
"           .++++++.+.+.         ",
"          .+++...+.+..          ",
"        ..+++.@@@.....          ",
"       .++++.@@@@@@@@@.         ",
"      ...++.@@@@@@@@@@@.        ",
"        .++.@@@@@@..@@...       ",
"       .++++.@@@@@@@.@@@.       ",
"      .++++.@@@@@@@@@.@@@.      ",
"     .+++++.@@@...........      ",
"     .++++++.@@.###.#.##..      ",
"    ....++++.@@@...........     ",
"    .  .++...@@@@@@@@@@@@@@.    ",
"      .+..@@@@@@@@@@@@@@@@@.    ",
"      .. ..@@@@@@@.........     ",
"      .  .@@@@@@..$$$$$.        ",
"          ..@@@.$$$$$$$$.       ",
"           .@@.$$$$$$$$$.       ",
"           .@.$$.$$$$$$$$.      ",
"           .@.$$$..$$$$$$$.     ",
"           .@.$$$$$........     ",
"           .@.$$$$$..           ",
"           .@.$$$$.             ",
"           .@@....              ",
"          .@@@@.                ",
"         ..@@@.                 ",
"        .%.@@@.                 ",
"       .%%%.@@..                ",
"       .........                "};
