/* XPM */
static char * lisa_xpm[] = {
"32 32 4 1",
" 	c None",
".	c #000000",
"+	c #FFB848",
"@	c #FFFFFF",
"                                ",
"                                ",
"           ..      .            ",
"           .+.    .+.           ",
"           .++.  .++.   ..      ",
"           .+++..++++. .+.      ",
"     ......++++++++++..++.      ",
"     .+++++++++++++++++++.      ",
"      .++++++++++++++++++.      ",
"      .++++++++++++++++++....   ",
"       .++++++++++++++++++++.   ",
"      .++++++++++++++++++++.    ",
"   ...++++++++++.+.+++.+.+.     ",
"   .++++++++++.+....++.... .    ",
"    .++++++++++.@@@@.+.@@@. .   ",
"     .+++++++..@@@@@@.@@@@@.    ",
"      .+++++++.@.@@@@.@.@@@.    ",
"     .++++++++.@@@@@@.@@@@.     ",
"    .++++++++++.@@@@......      ",
"   .+++++++..+++....+++++.      ",
"    ....++.+.+++++++++....      ",
"       .++.+++.++++++++++.      ",
"       .+. ..+...+++++++++.     ",
"        .  .+++++.........      ",
"           .+++++++.            ",
"          .++++++..             ",
"        ...++++++.              ",
"        .@...++++.              ",
"        ...@@...+..             ",
"         ....@@...@.            ",
"        .+++...@.@.             ",
"       .............            "};
