/* XPM */
static char * maggie_xpm[] = {
"32 32 7 1",
" 	c None",
".	c #000000",
"+	c #FFB848",
"@	c #00AAFF",
"#	c #FFFFFF",
"$	c #FF0000",
"%	c #500000",
"                                ",
"                  .             ",
"                 ..             ",
"        .      ..+.      .      ",
"        ..     .+++.   ...      ",
"       .++.  ..++++.  .++.      ",
"       .+++..@.+++.+..+++.      ",
"      .+++++.@....@.+++++.      ",
"      .+++++.@.@.@@.++++.       ",
".......+++++..+..@.+++++.       ",
" .+++++++++++++++..+++++.       ",
"  .+++++.+++.++++++++++++...... ",
"  .+++++.....++++.+++++++++++.  ",
"   .++++.####.+++.+++.+++++++.  ",
"    .+..######...#...+++++++.   ",
"    .++.#####.######.+++++++.   ",
"   .+++.##..#.######...++++.    ",
"   .+++.#####.#######.++++++.   ",
"  .+++++......####.##.++++++.   ",
" .......+++++..######.+++++++.  ",
"       ...++++..####.++++++++.. ",
"       .++++++++....++.+++...   ",
"       .+...+++++++++.+.+.      ",
"       ...$$.++++++++++.+.      ",
"      ..$$$$.++++++++..++.      ",
"     ....$$$.++++++++..++.      ",
"     .  .$$$.+++++++%  ...      ",
"     ......$.++.+++.     .      ",
"      ... ..++.+++.             ",
"           ...@...              ",
"            .@@@@.              ",
"           ........             "};
