/* XPM */
static char * marge_xpm[] = {
"32 32 7 1",
" 	c None",
".	c #000000",
"+	c #0000B9",
"@	c #FFB848",
"#	c #FFFFFF",
"$	c #0E0E0E",
"%	c #FF0000",
"     ......................     ",
"    .+++++++++++++++++++++.     ",
"    .++++++++++++++++++++.      ",
"     .++++++++++++++++++++.     ",
"    .+++++++++++++++++++++.     ",
"    .++++++++++++++++++++.      ",
"     .+++++++++.+++.++.+++.     ",
"    .+++++++++.@...@..@.+..     ",
"     .++++++..@@@.@@.@@.+.      ",
"      .++++.@@.@....@@....      ",
"     .++++++.@@.####..##.@.     ",
"     .++++++.@.######.###.      ",
"      .++++.@..######.#.#..     ",
"       .++++.@.#.####.###.      ",
"      .+++++.@.#####.....       ",
"      .+++..@@@.###.@@@@.       ",
"       .+.@@@@@@...@@@@@...     ",
"      .++..@@@@@@@@@@@..@@@.    ",
"      .++.@@.@@@.@@@@@@@@@..    ",
"       .++..@@@...........      ",
"        .++.@@@.@@@@@@.         ",
"         ...@@@@@@@@..          ",
"           .@@@@@@@.            ",
"           .@@@@@@@.            ",
"          ..@@@@@@@.$           ",
"         .%..@@@@@@.%.          ",
"         ..%%..@..@..           ",
"          ...%%.%%..%.          ",
"         .@@@..@..@..           ",
"         .@@@@@@@@@@.           ",
"        .@@@@@@@@@@@.           ",
"       ..............           "};
