/* XPM */
static char * moe_xpm[] = {
"32 32 7 1",
" 	c None",
".	c #000000",
"+	c #323232",
"@	c #FFB848",
"#	c #FFFFFF",
"$	c #B1B1FF",
"%	c #FF00AA",
"                                ",
"           ...  ...             ",
"          .......+...           ",
"         .+++++++++++.          ",
"         ......+++++++.         ",
"        .@@@@@...++++++.        ",
"      ..@@@@@@@@@.++++++.       ",
"    ..@@@@@@@@@@@@.++++++.      ",
"   .@@@@@.@@@@@@@@.++++++.      ",
"  .@@@@@.@@@@@@@@@.++++++.      ",
"   ...@.@@@@@@@@@@.++++++.      ",
"   .#...@@....@@@@.++++++.      ",
"    ...@..##.#.@@@.++++++.      ",
"   .@@@.@.....@@@@.......       ",
"  .@@@@@.@.@@@@@@@..@@..        ",
"  .@.@..@@@..@@@@..@@@..        ",
"   .@@@@@@@@@@@@@..@...#.       ",
"  .@@@@@@@@@@@@@@..@@@.#...     ",
" .@@@@@@@@@@@@@@@@@@@@.#..$..   ",
" .@@@@@@@@@@@@@@@@@@@.##..$$$.  ",
".@@@@@@@@@@...@.@@@@@.#...$$.$. ",
".@@@@@......@@@.@@@@.##...$$.$. ",
"......     ..@@@@@@.##.$..$.$$. ",
"            ..@@@@.###.$..$.$$. ",
"            ...@@..###.$..$.$$. ",
"            ..%.@.%.#.$$..$.$$. ",
"            .%%%.%%.#.$$..$.$$. ",
"            ..%%.%%.#.$$..$.$$. ",
"            . ..$.%.#.$$..$.$$. ",
"              .$$$.$.$$$$..$$$. ",
"             .$$$$.$$$$$$..$$$. ",
"             .................. "};
