/* XPM */
static char * mona_xpm[] = {
"32 32 12 1",
" 	c None",
".	c #000000",
"+	c #C7B1FF",
"@	c #323232",
"#	c #3E3E3E",
"$	c #7A7A7A",
"%	c #FFB848",
"&	c #FFFFFF",
"*	c #929292",
"=	c #963100",
"-	c #A0A0A4",
";	c #FF6B6B",
"          .....                 ",
"        ..+++++..               ",
"       .+++++++++.              ",
"      .+++++++++++.             ",
"     .+++++++++++++....         ",
"     .+++++++++++++@+++..       ",
"    .++++++++++++++++++++.      ",
"    .+++++++++++++++++++++.     ",
"    .+++++++++++++++++++++.     ",
"    .++@+++++++++++++++++++.    ",
"     .+@+++++++++++++++++++.    ",
"     .++@@+++....#$++++++++.    ",
"      .......%%%%%#++++++++.    ",
"        .%%%%%%%%%.++++++++.    ",
"      ....%%%%%%.%.++++++++.    ",
"    . .&&&.%....%..++++++++.    ",
"     .&&&&&.&&&..%%.++++++.     ",
"   ...&&.&.&&&&&..%.++++++.     ",
"     .&&&&.&&&.&.%%.+++++.      ",
"     *.....&&&&&.%%.+++++.      ",
"     .%.%%%.&&&.%%%.++++.       ",
"     .%=..%%...%%%%...++.       ",
"     .%%%%%%%%%%%%%.%%.++.      ",
"     .%%%%%%%%%%%%%%=%.+++.     ",
"    .%%%%%%%%%=%%%%%%.++++.     ",
"    .%%=%%=%%%=%%%%..+++++.     ",
"     ..........=%%%%.+++++.     ",
"        ..%%%%%=%%%%..+++.      ",
"          .%%%%%%%%.-....       ",
"         .-.%%%%...--.          ",
"         .-.%%..----.;.         ",
"        ................        "};
