/* XPM */
static char * otto_xpm[] = {
"32 32 9 1",
" 	c None",
".	c #000000",
"+	c #FF5725",
"@	c #960000",
"#	c #A0A0A4",
"$	c #FFB848",
"%	c #0E0E0E",
"&	c #FFFFFF",
"*	c #FF8E8E",
"            ........            ",
"           .        .           ",
"         ...... ...  .          ",
"        .+@@@@@.@@+.  .         ",
"        .+++++++++++. .         ",
"        .+++++++++++. .         ",
"      ...+++++++++++. .         ",
"   ...++....++++++++. .         ",
" ..+++++++++...+++++. .         ",
".++++++++++++++.......#.        ",
" ..............$$.....#..       ",
"   .$$$.$$.$$$$.$$....#..       ",
"   ......$......$.....#.%..     ",
"    ..&&.$..&&&.$.....#.....    ",
"     ...$$.&&&.$$.....#.....    ",
"    .$$$$$$...$$$...+.#.....    ",
"    .$$$$$$.$$$$$$.++.#.......  ",
"    ..$$$.$$...$$$.+.#.+......  ",
"  ..$$...$$$$$$$$$.++.++....... ",
" .$$$$$$$$$$$$$$.$$.+++........ ",
".$$$$$$$$$$$$$$$..$$............",
" .$$$$$$$$$$$$$.&.$$..+.........",
"  ...$$$$$$$...&.$$$...+........",
"     .......&&..$$$$...+........",
"      ..&&&...$$$$$$$..+........",
"      ......$$$.$$$$$...+.......",
"       ..........$$$$...+.......",
"         .........$$$$..+.***...",
"         ..........$$$...******.",
"         .......**.$$$.*.******.",
"          ....**.**.$.**.******.",
"         ......................."};
