/* XPM */
static char * patty_xpm[] = {
"32 32 8 1",
" 	c None",
".	c #000000",
"+	c #620096",
"@	c #FFB848",
"#	c #FFC66B",
"$	c #FFFFFF",
"%	c #FF00AA",
"&	c #FF25FF",
"                                ",
"           .......              ",
"        ...++.++.+....          ",
"      ...++++++++++++...        ",
"     .++++++++++++++++++.       ",
"    .+++++++++++++++++++..      ",
"   ..++++++++++++++++++++.      ",
"  .+++++++++++++++++++++++.     ",
"  .+++++++++++++++++++++++..    ",
" ..++++++++++++++++++++++++.    ",
" .++++++++++++++++++++++++++.   ",
" .++++++++++++++++++++..++++.   ",
" .++++++++++++++++++..@@..++.   ",
"  .++++++++++++++++.@@@@@@...   ",
" .++++++++++++++++.@@@@@@@@..   ",
" .+++++++++++++++.@@@@@@.@@@.   ",
"  .+++++++++++++..@....@.....   ",
"  .+++++++++++++.@#.$.$.@...    ",
"  .++++++++++++..@@@....@@@.    ",
"   ..+++++++++.@@@@@@@@@....    ",
"    .+++++++++.@@#@@@@@@@@@@.   ",
"    .+++++++++..@@@.@....@@@@.. ",
"     ....++++.%..@@@.@@@......  ",
"        ......%%.@@@@@@.        ",
"             .%%.@@@@@@.        ",
"             .%..@@@@@@.        ",
"             .. ...@..@.        ",
"                .%%.%%.%.       ",
"               .&..@..@..       ",
"              .&&&.@@@.&&.      ",
"             .&&&&.@@@.&&&.     ",
"             ..............     "};
