/* XPM */
static char * sarah_xpm[] = {
"32 32 29 1",
" 	c None",
".	c #000000",
"+	c #010101",
"@	c #C6B0FE",
"#	c #C5AFFD",
"$	c #020202",
"%	c #C3ADFB",
"&	c #030303",
"*	c #FCB647",
"=	c #010100",
"-	c #FEB848",
";	c #020201",
">	c #FEFEFE",
",	c #FDB848",
"'	c #FEB748",
")	c #FCB547",
"!	c #020200",
"~	c #FBB647",
"{	c #FCB848",
"]	c #FBB748",
"^	c #E62911",
"/	c #FCB748",
"(	c #C5B0FD",
"_	c #C4AEFC",
":	c #C2ACFA",
"<	c #CECECE",
"[	c #FF6BC6",
"}	c #010000",
"|	c #020102",
"            .....               ",
"         .++@@@@@+++            ",
"       ++@@@@###@@@@++          ",
"      +@@$$##%###%#@@@+         ",
"     +@@$###%&##%&###@@+        ",
"    +@@$####$###$#####@@+       ",
"   +@@######&###&#######+       ",
"   ++$$$$$@@@@@@@@@######+      ",
"     +****++++++++@@#####+      ",
"   + ==------;----+@##$###+     ",
"    +>>+----++*;,-+@##$###+     ",
"  ++>>>>+--+>>+**-+@##$#$#+     ",
"   +>+>>+-+>>>>+;'+@##$#$#+     ",
"    +>>+;-+>>+>+*-+@$##$#$#+    ",
"    +++*)--+>>+*,-=@$##$#$#+    ",
"    !~!-----++*,,-=@#$#$#$#+    ",
"   !,,~==,---,,,,-+@#$#$###@+   ",
"  !,,,,,,,,-------=@#$##$##@+   ",
" !~,{{,,,,,-------+@#$##$##@+   ",
" !~,]]]]]]{,,,,,,-+@@######@@+  ",
"  =~^^^^^//{,,==,--+@#(#####@@. ",
"   +&&&$$;;===,,,--+@@#####@@@+ ",
"   +_:^^^^{{,,,,,---+@@@@@@@@@@.",
"  +___:^^{{,,,,-----=++$++++++. ",
"  ..+$++{{,,,,----==<<<=        ",
"     +<<+-------==<<<<+[=       ",
"    .<<<=-----==<<<<<+[[[=.     ",
"    +<<<+---=+<<<<<<+[[[[[+=.   ",
"   =$<<<+-'+<<<<<<<+[[[[[+<<<+  ",
"  +[$<<<+-=<<<<<<<+[[[[[+<<<<<+ ",
" }[[[$<<++<<<<<<<+[[[[[+<<<<<<<+",
".||||+$$$$$$$$$$+||||||+$$$$$$$+"};
