/* XPM */
static char * selma_xpm[] = {
"32 32 9 1",
" 	c None",
".	c #000000",
"+	c #C66BFF",
"@	c #FFB848",
"#	c #FFFFFF",
"$	c #FF6BC6",
"%	c #C2C2C2",
"&	c #FF25AA",
"*	c #0055FF",
"                                ",
"                                ",
"                                ",
"                                ",
"         ...  ...    ..         ",
"        .+++..+++. ..++..       ",
"       .++++++++++..+++++.      ",
"      .+++++++++++++.+++++.     ",
"     .+++++++++++++.+++++++.    ",
"     .++++++++++++++++++++++.   ",
"    .+++++++++++++++++++++++.   ",
"   .+++++++++++++.++.++++++++.  ",
"   .+++++++++++..@..@.+++++++.  ",
"   .+++++++++..@@@@@@@.++++++.  ",
"  .++++++++++.@@@@@@@@@.++++++. ",
"  .+++++++++.@@.@@@.@@@.++++++. ",
"  .+++++++++.@...........+++++. ",
" .++++++++..@@@.#.#..#..+++++++.",
" .+++++++.@.@@@@...@@...+++++++.",
" .+++++++.@@@@@@@@@@@@@@.++++++.",
" .+++++++.@@.@@@@@@@@@..+++++++.",
"  ..++++++..@@@@.....@@@.++++.. ",
"    .++++.$$.@@@@@@.$.....++.   ",
"     ..+++..@@@@@@....%%.++.    ",
"       ...  ..@@@@.   .. ..     ",
"           .&&..@...            ",
"           ...&&.&&..           ",
"          .**...@..@...         ",
"         ..***.@@@@@..*.        ",
"        .@.****.@@@@.*.@.       ",
"       .@@.*****.@@.**.@@.      ",
"       ...................      "};
