/* XPM */
static char * snowball_xpm[] = {
"32 32 10 1",
" 	c None",
".	c #000000",
"+	c #565656",
"@	c #6BFF6B",
"#	c #0E0E0E",
"$	c #FF8ED4",
"%	c #4A4A4A",
"&	c #FF0000",
"*	c #FFFFFF",
"=	c #323232",
"                                ",
"                                ",
"                                ",
"                                ",
"                                ",
"            .                   ",
"            ..                  ",
"            ..      .           ",
"            .+.     ..          ",
"            .++.    ..          ",
"            .+++.   .+.         ",
"       .    .++++.  .+.         ",
"       ..   .+++++...+.         ",
"       .+.  .+++++++++.         ",
"       .+...++++++++++.         ",
"      . .++++++++++++++.        ",
"      ...+++......++++++.       ",
"       .+++.@@@.@@.++.#..       ",
"     . .+++.@@@.@@@...@...      ",
"     ..++++.@@@.@@@..@@.@@.     ",
"     .++++++..@@@@...@@.@@.     ",
"     .++++++++.....$$.@@@.      ",
"    ..++++...+++%.$$$$...       ",
"  ..&.+++..*...+++.$$.+=    ... ",
"...&&.+++++.++.......++#  ..    ",
".+.&&.++++++++++++..++++..      ",
".+.&&.++.......... ...+++.....  ",
".+.&&...             ...++.   . ",
".....                .*.++.     ",
".+.                  .. ..      ",
".+.                             ",
"....                            "};
