/* XPM */
static char * unknown_xpm[] = {
"32 32 12 1",
" 	c None",
".	c #000000",
"+	c #B97A00",
"@	c #FFB848",
"#	c #FFFFFF",
"$	c #3E3E3E",
"%	c #929292",
"&	c #966200",
"*	c #503200",
"=	c #DC9200",
"-	c #565656",
";	c #C7B1FF",
"               ...              ",
"                .+..            ",
"          .......+++.           ",
"        ..+++++++++++...        ",
"       .++++++++++++++++..      ",
"      .+++++++++++++++++.       ",
"     .+++++++++++++++++++.      ",
"    .+++++.+++++...+++++++.     ",
"    .++.++.+..+.@@.+++++++.     ",
"   .++..+...@..@@..++++.+++.    ",
"   ... ..##.@.@@.##.+++.+++.    ",
"   $   .#.#.@@@.####.++.++++.   ",
"       .##.@@@@.##.##.+.++++.   ",
"      .@..@@@@@@.###.@..+++++.  ",
"       .%@@@@@@@@...@@.@.++++.  ",
"       .@@@..@@@@@@@@@@@@.+++.  ",
"       .@@@@.@@@@@@@@@..@.+++.  ",
"        ....@@@@&*@@@@.@@.++.   ",
"       .@@@@@@@@@@@@@@@@.+.+.   ",
"      .@@@@@@@@@@@@@.@@.++.$.   ",
"     .@@@@@@@@@@=*@@@..++. .    ",
"    .@@@@@@@@&*@@@@@.++++.      ",
"    .@@@@@@@@@@@@@@@.+.+.       ",
"    .@@%....-@@@-@@@.. .        ",
"     ... .##......@@.           ",
"         .##.##.@@@@.           ",
"          ..@..@@@@@.           ",
"           .@@@@@@@.;.          ",
"           .@@@@@..;;.          ",
"          ..@@@..;;;;..         ",
"         .;.@@.;;.;;.;;.        ",
"        .................       "};
